<?xml version="1.0" standalone="no"?>
<!DOCTYPE svg PUBLIC "-//W3C//DTD SVG 20010904//EN"
 "http://www.w3.org/TR/2001/REC-SVG-20010904/DTD/svg10.dtd">
<svg version="1.0" xmlns="http://www.w3.org/2000/svg"
 width="512.000000pt" height="512.000000pt" viewBox="0 0 512.000000 512.000000"
 preserveAspectRatio="xMidYMid meet">
<metadata>
Created by potrace 1.11, written by Peter Selinger 2001-2013
</metadata>
<g transform="translate(0.000000,512.000000) scale(0.100000,-0.100000)"
fill="#000000" stroke="none">
<path d="M2407 4924 c-1 -1 -33 -5 -72 -8 -38 -3 -81 -8 -95 -10 -14 -3 -43
-7 -65 -10 -50 -7 -82 -13 -199 -41 -83 -20 -263 -79 -331 -110 -129 -58 -153
-70 -224 -109 -118 -66 -151 -86 -164 -96 -7 -5 -46 -34 -87 -64 -104 -77
-127 -95 -184 -146 -105 -95 -202 -198 -278 -295 -27 -33 -52 -65 -58 -72 -5
-7 -10 -17 -10 -23 0 -5 -4 -10 -9 -10 -8 0 -39 -47 -118 -178 -39 -65 -121
-234 -158 -325 -31 -78 -90 -266 -101 -322 -2 -11 -6 -31 -9 -45 -10 -48 -15
-75 -21 -110 -3 -19 -7 -46 -10 -60 -24 -143 -24 -533 0 -655 2 -11 7 -40 11
-65 9 -56 13 -78 20 -110 3 -14 7 -34 9 -46 7 -34 45 -164 68 -229 257 -735
846 -1290 1593 -1504 74 -21 197 -49 255 -57 19 -2 44 -6 55 -9 119 -24 539
-25 664 0 12 2 43 7 68 10 24 2 48 7 52 10 5 2 23 7 42 9 19 3 49 9 67 15 18
5 36 10 40 10 33 3 254 78 337 114 95 42 260 130 330 176 39 25 74 48 79 50
17 7 148 109 210 164 111 97 202 192 302 317 70 87 164 224 164 240 0 5 3 10
8 10 4 0 27 39 52 88 25 48 50 90 55 94 6 4 6 8 2 8 -5 0 -2 12 7 28 44 83
125 298 141 375 2 10 7 27 10 37 3 10 8 29 10 42 3 13 7 34 10 48 11 50 15 76
20 110 3 19 8 45 10 57 25 112 24 547 0 668 -3 11 -7 36 -10 55 -21 146 -78
349 -141 505 -28 67 -126 267 -135 275 -3 3 -14 21 -24 40 -18 36 -140 216
-159 236 -6 6 -22 26 -36 44 -207 275 -599 566 -950 705 -25 9 -54 21 -65 26
-26 11 -145 50 -165 54 -8 2 -15 4 -15 5 0 1 -11 4 -25 6 -14 3 -43 9 -65 15
-39 11 -54 14 -105 24 -14 3 -34 7 -45 9 -21 4 -68 10 -165 22 -50 6 -388 13
-393 8z"/>
</g>
</svg>
