<?xml version="1.0" standalone="no"?>
<!DOCTYPE svg PUBLIC "-//W3C//DTD SVG 20010904//EN"
 "http://www.w3.org/TR/2001/REC-SVG-20010904/DTD/svg10.dtd">
<svg version="1.0" xmlns="http://www.w3.org/2000/svg"
 width="1000.000000pt" height="1000.000000pt" viewBox="0 0 1000.000000 1000.000000"
 preserveAspectRatio="xMidYMid meet">
<metadata>
Created by potrace 1.11, written by Peter Selinger 2001-2013
</metadata>
<g transform="translate(0.000000,1000.000000) scale(0.100000,-0.100000)"
fill="#000000" stroke="none">
<path d="M4660 9614 c-130 -12 -338 -38 -439 -55 -1167 -199 -2202 -831 -2922
-1784 -451 -597 -755 -1319 -869 -2065 -68 -442 -68 -978 0 -1420 224 -1461
1142 -2732 2465 -3409 432 -222 913 -377 1395 -451 442 -68 978 -68 1420 0
969 148 1864 603 2560 1300 781 782 1247 1789 1340 2895 13 155 13 595 0 750
-93 1106 -559 2113 -1340 2895 -679 680 -1544 1128 -2490 1289 -261 45 -376
53 -730 56 -190 1 -365 1 -390 -1z m526 -1063 c333 -25 675 -114 954 -250 222
-108 448 -263 621 -426 224 -210 444 -512 560 -765 32 -69 60 -137 64 -152 10
-40 34 -56 120 -79 74 -19 170 -68 258 -130 152 -109 295 -312 343 -488 21
-75 24 -108 24 -262 0 -97 -4 -189 -9 -205 -55 -179 -54 -172 -33 -201 11 -16
30 -37 42 -48 12 -11 57 -65 99 -120 399 -521 535 -1247 356 -1905 -66 -243
-213 -552 -334 -700 -20 -25 -49 -62 -65 -83 -55 -75 -322 -333 -417 -404
-180 -135 -405 -251 -614 -317 -47 -15 -261 -66 -277 -66 -5 0 -8 159 -8 353
l0 352 78 25 c288 92 578 314 759 580 120 176 219 443 244 659 13 106 6 371
-11 441 -6 25 -16 68 -21 95 -44 200 -167 450 -305 620 -49 60 -60 64 -136 41
-66 -21 -86 -33 -93 -58 -14 -45 -118 -255 -172 -348 -127 -216 -286 -411
-483 -591 -154 -141 -432 -338 -539 -382 -25 -10 -70 -30 -100 -44 -216 -98
-362 -142 -658 -198 -310 -58 -721 -38 -1076 54 -103 27 -302 93 -362 121 -11
5 -58 27 -105 48 -156 71 -414 243 -555 371 -199 180 -386 398 -494 576 -51
85 -172 321 -200 392 -11 26 -22 35 -55 44 -22 7 -61 18 -85 26 -64 20 -70 15
-193 -157 -175 -246 -268 -548 -268 -864 0 -158 34 -340 94 -508 103 -288 316
-574 541 -725 118 -79 268 -154 378 -188 l87 -27 0 -354 c0 -316 -2 -354 -16
-354 -66 0 -408 117 -532 183 -357 187 -543 339 -790 646 -93 115 -250 400
-302 546 -41 116 -89 286 -100 350 -50 308 -52 330 -47 475 12 308 97 666 215
910 84 172 192 335 331 499 l53 63 -31 92 c-102 296 -38 628 167 876 121 146
275 250 432 291 90 23 116 38 126 73 16 57 125 282 180 371 123 201 207 306
392 493 220 223 433 374 706 502 172 80 478 175 627 195 24 3 72 11 105 16
151 26 346 33 530 20z m-691 -5480 c50 -10 111 -28 138 -40 l47 -20 0 -696 0
-696 -47 -20 c-27 -12 -88 -30 -138 -40 -363 -76 -720 108 -872 450 -33 74
-63 219 -63 306 0 88 30 232 64 308 151 339 509 524 871 448z m1440 -21 c135
-42 222 -96 325 -200 106 -105 158 -191 202 -330 19 -64 23 -96 23 -215 0
-161 -17 -231 -88 -370 -58 -113 -200 -254 -312 -312 -123 -63 -202 -84 -335
-90 -127 -5 -213 8 -316 49 -58 23 -59 23 -64 69 -8 70 -20 79 -105 79 l-73 0
-61 67 c-57 62 -151 223 -151 259 0 7 12 22 27 31 22 15 57 19 188 23 l160 5
3 184 c2 141 -1 186 -10 193 -7 4 -77 8 -156 8 -157 0 -212 13 -212 48 0 41
89 199 150 265 l61 66 82 3 82 3 3 56 3 57 47 20 c46 20 133 46 182 56 14 2
81 3 150 1 95 -2 142 -8 195 -25z"/>
<path d="M4765 8094 c-90 -12 -235 -41 -310 -64 -371 -114 -646 -273 -894
-519 -238 -235 -420 -523 -520 -821 -23 -69 -46 -134 -51 -145 -5 -11 -14 -54
-20 -95 -7 -41 -16 -100 -22 -130 -16 -91 -21 -357 -9 -465 32 -277 73 -430
178 -664 67 -149 64 -144 137 -255 97 -150 174 -245 295 -367 110 -110 322
-278 403 -320 20 -10 54 -30 75 -45 101 -68 260 -133 478 -193 217 -61 232
-63 465 -60 102 1 196 1 210 1 91 -2 424 64 495 98 11 6 40 16 65 24 45 14
146 56 165 68 6 3 46 25 90 48 44 23 87 47 95 54 8 6 28 18 43 26 16 8 39 24
52 36 12 11 40 31 61 44 22 13 53 38 69 55 17 18 77 77 135 131 120 114 232
253 335 419 29 47 115 214 130 254 110 290 160 513 171 763 12 248 -13 421
-103 706 -82 262 -303 613 -519 823 -152 147 -214 194 -464 348 -167 103 -462
202 -698 235 -88 13 -459 19 -537 10z m-811 -3139 l49 -43 -19 -24 c-11 -13
-70 -83 -133 -155 l-114 -132 -54 46 c-29 25 -52 49 -51 54 7 17 254 298 263
298 6 0 32 -20 59 -44z m2181 -97 c19 -29 35 -57 35 -63 0 -5 -29 -29 -65 -52
-45 -30 -63 -47 -59 -58 9 -22 21 -19 76 16 32 21 53 28 59 22 6 -6 -10 -23
-46 -46 -58 -39 -63 -48 -42 -65 10 -9 30 0 81 34 38 26 71 42 75 37 49 -74
73 -114 70 -116 -239 -157 -261 -170 -269 -157 -5 8 -54 84 -109 169 -56 84
-101 156 -101 160 0 5 247 171 256 171 2 0 19 -24 39 -52z m-1950 -69 c41 -20
115 -91 115 -111 0 -4 -30 -23 -66 -41 -49 -23 -68 -28 -71 -19 -3 7 -18 19
-34 28 -44 22 -89 -4 -89 -53 0 -25 43 -63 72 -63 17 0 19 -7 16 -72 l-3 -73
-44 2 c-57 3 -126 45 -166 101 -55 79 -35 190 47 269 18 18 44 36 58 42 43 17
117 12 165 -10z m299 -145 c72 -26 135 -50 139 -54 12 -11 -33 -130 -48 -130
-7 0 -42 11 -79 25 -65 24 -66 24 -76 5 -9 -16 -7 -22 7 -27 76 -27 108 -42
111 -52 5 -16 -16 -14 -77 10 -43 16 -56 18 -62 7 -17 -26 -8 -34 61 -57 38
-12 72 -26 75 -31 8 -13 -27 -121 -40 -127 -16 -6 -284 90 -285 102 -1 20 125
375 134 375 4 0 67 -21 140 -46z m1324 20 c64 -44 68 -155 8 -196 -6 -4 -8 -9
-6 -11 3 -2 34 -25 70 -52 36 -26 69 -52 73 -56 5 -4 -40 -26 -100 -49 -59
-23 -129 -51 -154 -61 l-47 -18 -71 184 c-39 101 -71 188 -71 193 0 5 42 25
93 45 101 39 169 46 205 21z m-349 -126 c60 -295 68 -340 57 -344 -21 -7 -101
-24 -117 -24 -13 0 -23 36 -53 183 -20 100 -36 190 -36 199 0 17 53 35 112 37
24 1 27 -3 37 -51z m-171 -2 c3 -4 -135 -407 -142 -413 -2 -2 -26 32 -52 76
-27 45 -52 81 -55 81 -4 0 -30 -36 -59 -80 -29 -44 -54 -79 -55 -78 -2 3 -70
219 -121 387 l-14 44 248 -7 c136 -4 248 -9 250 -10z"/>
</g>
</svg>
